<?xml version="1.0" encoding="UTF-8" standalone="no"?>
<!DOCTYPE svg PUBLIC "-//W3C//DTD SVG 1.1//EN" "http://www.w3.org/Graphics/SVG/1.1/DTD/svg11.dtd">
<svg width="100%" height="100%" viewBox="0 0 213 161" version="1.1" xmlns="http://www.w3.org/2000/svg" xmlns:xlink="http://www.w3.org/1999/xlink" xml:space="preserve" xmlns:serif="http://www.serif.com/" style="fill-rule:evenodd;clip-rule:evenodd;stroke-linejoin:round;stroke-miterlimit:2;">
    <g transform="matrix(1,0,0,1,360.569951,-813.189456)">
        <g transform="matrix(0.940237,-0.940237,0.940237,0.940237,-997.655692,777.411541)">
            <path d="M306.264,484.287L292.264,484.287C269.635,484.287 251.264,465.916 251.264,443.287C251.264,420.659 269.635,402.287 292.264,402.287L347.264,402.287C369.892,402.287 388.264,420.659 388.264,443.287L388.264,498.287C388.264,520.916 369.892,539.287 347.264,539.287C324.635,539.287 306.264,520.916 306.264,498.287L306.264,484.287ZM312.992,420.787L292.264,420.787C279.846,420.787 269.764,430.869 269.764,443.287C269.764,455.706 279.846,465.787 292.264,465.787L306.264,465.787L306.264,443.287C306.264,434.981 308.739,427.248 312.992,420.787ZM369.764,443.287C369.764,430.869 359.682,420.787 347.264,420.787C334.846,420.787 324.764,430.869 324.764,443.287L324.764,465.787L347.264,465.787C359.682,465.787 369.764,455.706 369.764,443.287ZM324.764,484.287L324.764,498.287C324.764,510.706 334.846,520.787 347.264,520.787C359.682,520.787 369.764,510.706 369.764,498.287L369.764,477.559C363.303,481.812 355.57,484.287 347.264,484.287L324.764,484.287Z" style="fill:url(#_Linear1);"/>
        </g>
    </g>
    <defs>
        <linearGradient id="_Linear1" x1="0" y1="0" x2="1" y2="0" gradientUnits="userSpaceOnUse" gradientTransform="matrix(153.141,13.8288,-13.8288,153.141,308.666,469.045)"><stop offset="0" style="stop-color:rgb(132,122,255);stop-opacity:1"/><stop offset="1" style="stop-color:rgb(51,125,224);stop-opacity:1"/></linearGradient>
    </defs>
</svg>
